<svg id="Cleva_-_Insurance_solution" data-name="Cleva - Insurance solution" xmlns="http://www.w3.org/2000/svg" viewBox="0 0 317.64 159.68"><defs><style>.cls-1{fill:#fff;}.cls-2{fill:#00aca9;}.cls-3{fill:#e8423b;}.cls-4{fill:none;}</style></defs><path class="cls-1" d="M23.26,99.29H19.7V85.47h3.56Z"/><path class="cls-1" d="M42.33,92.85l0,6.44h-3.4V94.14c0-2.47-.82-3.76-3.61-3.76a8.36,8.36,0,0,0-5.76,2.39v6.52H26.14V87.66h3.38v2a10.8,10.8,0,0,1,6.77-2.23C39.39,87.46,42.29,88.57,42.33,92.85Z"/><path class="cls-1" d="M48,95.2c0,1.25,1.28,1.72,5.05,1.72s4.25-.24,4.25-1.15-.56-.94-4.64-1.2c-5.12-.3-7.62-.69-7.62-3.49,0-3,3.55-3.62,7.7-3.62,4.38,0,7.56.57,7.56,3.77h-3.4c0-1-1.22-1.2-4.36-1.2s-4.11.24-4.11.91.61.85,4.62,1.14c4.54.34,7.64.46,7.64,3.56,0,3.27-3,3.85-7.44,3.85s-8.63-.58-8.63-4.29Z"/><path class="cls-1" d="M79.27,87.66V99.29H75.9v-2a10.8,10.8,0,0,1-6.78,2.24c-3.1,0-6-1.11-6-5.39l0-6.44h3.4v5.15c0,2.47.83,3.75,3.61,3.75a8.36,8.36,0,0,0,5.77-2.39V87.66Z"/><path class="cls-1" d="M94.52,87.86v2.82a11.59,11.59,0,0,0-3-.39,9.68,9.68,0,0,0-6.12,2v7H82V87.66h3.37v2a8.64,8.64,0,0,1,6-2.17A12.07,12.07,0,0,1,94.52,87.86Z"/><path class="cls-1" d="M111.64,93.42v5.87h-3.4V97.85a15.72,15.72,0,0,1-7.07,1.64c-3.26,0-5.29-1-5.29-3.68,0-3,3.32-4,7-4a17,17,0,0,1,5.35.82c0-2.21-2.84-2.38-4.42-2.38a19.44,19.44,0,0,0-5.77.84l-1.2-2.46A22.8,22.8,0,0,1,104,87.46C108.83,87.46,111.6,89,111.64,93.42Zm-3.4,1.35a16,16,0,0,0-4.94-.71c-2.52,0-4,.43-4,1.62S100.38,97,102.14,97a17.4,17.4,0,0,0,6.1-1.32Z"/><path class="cls-1" d="M130.51,92.85l0,6.44h-3.39V94.14c0-2.47-.83-3.76-3.62-3.76a8.36,8.36,0,0,0-5.76,2.39v6.52h-3.38V87.66h3.38v2a10.85,10.85,0,0,1,6.77-2.23C127.57,87.46,130.47,88.57,130.51,92.85Z"/><path class="cls-1" d="M140.92,87.46c4.34,0,7.4,1.42,8,4.84h-3.45c-.46-1.5-2-2-4.5-2-2.91,0-4.68.77-4.68,3.19s1.77,3.18,4.68,3.18c2.45,0,4-.51,4.5-2h3.45c-.55,3.41-3.61,4.84-8,4.84-4.82,0-8.06-1.74-8.06-6S136.1,87.46,140.92,87.46Z"/><path class="cls-1" d="M163.49,95.12h3.35c-.77,3-3.65,4.37-8,4.37s-7.86-1.74-7.86-6,3.33-6,8.05-6c4.43,0,8,1.52,8,6.81H154.48c.38,1.86,2.15,2.47,4.41,2.47S162.64,96.31,163.49,95.12Zm-8.89-3h8.83c-.58-1.64-2.23-2.09-4.37-2.09C156.75,90,155.13,90.48,154.6,92.12Z"/><path class="cls-1" d="M183.29,94.53c0,1.46,1.18,2.13,5.69,2.13,3.73,0,4.85-.41,4.85-1.5s-.79-1.34-5.27-1.56c-6-.27-8.41-1.22-8.41-4.32s3.1-4,8.27-4,8.38,1.3,8.38,4.72h-3.56c0-1.52-1.52-1.9-5.21-1.9-3.5,0-4.33.34-4.33,1.37s.83,1.26,4.86,1.5c5.45.29,8.83.59,8.83,4.08,0,3.7-3.5,4.45-8.61,4.45-5.67,0-9-1-9-5Z"/><path class="cls-1" d="M199.66,93.48c0-4.28,3.24-6,8.05-6s8.06,1.74,8.06,6-3.26,6-8.06,6S199.66,97.75,199.66,93.48Zm12.71,0c0-2.42-1.54-3.19-4.66-3.19s-4.67.77-4.67,3.19,1.54,3.18,4.67,3.18S212.37,95.89,212.37,93.48Z"/><path class="cls-1" d="M221.62,83.49v15.8h-3.38V83.49Z"/><path class="cls-1" d="M240.55,87.66V99.29h-3.38v-2a10.75,10.75,0,0,1-6.77,2.24c-3.1,0-6-1.11-6-5.39l0-6.44h3.4v5.15c0,2.47.83,3.75,3.61,3.75a8.32,8.32,0,0,0,5.76-2.39V87.66Z"/><path class="cls-1" d="M249.48,90.48v3.36c0,2.25.43,2.82,2.48,2.82a17.91,17.91,0,0,0,3-.19v2.72a22.7,22.7,0,0,1-4,.3c-3,0-4.94-1.13-4.94-3.7V90.48H243V87.66h3.06V85.25l3.4-1v3.38H255v2.82Z"/><path class="cls-1" d="M260.93,83.49v3h-3.38v-3Zm0,4.17V99.29h-3.38V87.66Z"/><path class="cls-1" d="M263.4,93.48c0-4.28,3.23-6,8.05-6s8.06,1.74,8.06,6-3.26,6-8.06,6S263.4,97.75,263.4,93.48Zm12.71,0c0-2.42-1.54-3.19-4.66-3.19s-4.68.77-4.68,3.19,1.54,3.18,4.68,3.18S276.11,95.89,276.11,93.48Z"/><path class="cls-1" d="M298.17,92.85l0,6.44h-3.4V94.14c0-2.47-.83-3.76-3.61-3.76a8.41,8.41,0,0,0-5.77,2.39v6.52H282V87.66h3.37v2a10.85,10.85,0,0,1,6.78-2.23C295.22,87.46,298.13,88.57,298.17,92.85Z"/><path class="cls-1" d="M52.08,130.93v9H45.5v-6.34c0-2.82-1-4-3.92-4a8,8,0,0,0-5.29,2.09v8.28H29.71V124h6.58v2.32a13.47,13.47,0,0,1,8-2.47C48,123.8,52.08,125,52.08,130.93Zm36.65-12H82.15v5H78.61v5.34h3.54v10.64H95.31v-5.36H88.73v-5.28h6.58V124H88.73ZM76.83,133H61.45c.54,1.73,2.35,2.17,4.14,2.17a7.57,7.57,0,0,0,3.66-.58h7.16c-1,3.83-4.51,5.71-10.82,5.71s-10.76-2.38-10.76-8.38,4.41-8.38,11-8.38S76.83,125.94,76.83,133Zm-6.89-3.62c-.76-1.08-2.39-1.58-4.12-1.58s-3.34.5-4,1.58Zm43.79,3.08a7.65,7.65,0,0,1-5.08,2c-2.84,0-3.81-1.16-3.81-3.87V124H98.26v9.24c0,5.71,4.29,6.82,7.84,6.82a12.85,12.85,0,0,0,7.63-2.37v2.29h6.59V124h-6.59Zm37.51-8.78c-3.88,0-6.2,1.23-7.79,3.08-1.25-2.34-4-3.08-6-3.08a9.41,9.41,0,0,0-7.18,2.93V124h-6.59v16h6.59v-8.62a6,6,0,0,1,4.33-2c2.34,0,3.06,1.17,3.06,3.91v6.73h6.58v-8.79a5.41,5.41,0,0,1,4.14-1.85c2.34,0,3.06,1.17,3.06,3.91v6.73H158v-9.6C158,124.82,154,123.7,151.24,123.7ZM19.75,124v16h6.58V124Zm6.58-8.3H19.75v6.58h6.58Z"/><path class="cls-2" d="M171.2,120.18v6.58h6.58v6.59h6.59V120.18Zm0,13.17h-6.58v6.58h6.58Z"/><path class="cls-2" d="M39.41,24.61c15.13,0,23,5.3,23.62,17.25H48.65c-.54-3.57-3.29-5.36-9.24-5.36-8.32,0-9.73,3.52-9.73,7.52s1.46,7.62,9.73,7.62c6,0,8.7-1.84,9.24-5.46H63c-.6,12-8.43,17.35-23.62,17.35C22.76,63.53,15.63,57.2,15.63,44S22.76,24.61,39.41,24.61Z"/><path class="cls-2" d="M80.76,19.75V63h-13V19.75Z"/><path class="cls-2" d="M116.27,50.83H129c-1.62,8.59-8.59,12.7-21.94,12.7-12.7,0-21.51-4.76-21.51-16.76S94.33,30,107.57,30s21.94,4.76,21.94,18.92H98.76c1.08,3.45,4.7,4.32,8.27,4.32C111.73,53.26,113.62,52.94,116.27,50.83ZM99.35,42.45h16.33c-1.46-2.92-4.71-3.24-8.16-3.24S100.81,39.53,99.35,42.45Z"/><path class="cls-2" d="M174.86,30.56,161.35,63H142.92L129.41,30.56h14.05l8.7,22.65,8.65-22.65Z"/><path class="cls-2" d="M217.89,46.94V63h-13V59c-5,3.68-10.65,4.49-16.27,4.49-7.41,0-13.89-2.65-13.89-9.68,0-8.43,9.73-10.64,19.18-10.64a31.55,31.55,0,0,1,11,1.67c0-3.89-4.11-4.05-8.43-4.05a68.47,68.47,0,0,0-14.87,1.67l-4.21-9.18A65.55,65.55,0,0,1,196.92,30C210.21,30,217.78,34.56,217.89,46.94Zm-13,4.1a35.26,35.26,0,0,0-8.6-.81c-6,0-8.59.54-8.59,2.6,0,1.78,1.51,2.05,4.81,2.05a33.34,33.34,0,0,0,12.38-2.49Z"/><rect class="cls-3" x="231.07" y="49.82" width="13.17" height="13.17"/><rect class="cls-4" width="317.64" height="159.68"/></svg>